# xmcd
#
# Track frame offsets: 
#        150
#        14187
#        26812
#        37825
#        49625
#        61175
#        71300
#        83000
#        94275
#        107247
#
# Disc length: 1571 seconds
#
# Revision: 0
# Processed by: cddbd v1.5.2PL0 Copyright (c) Steve Scherf et al.
# Submitted via: ExactAudioCopy v0.99pb5
#
DISCID=7c06210a
DTITLE=Patsy Cline - The Legendary Patsy Cline [CD2 of 2)
DYEAR=1900
DGENRE=Country
TTITLE0=A church, a courtroom and then goodbye
TTITLE1=A poor man's roses (or a rich man's gold)
TTITLE2=I cried all the way to the altar
TTITLE3=I've loved and lost again
TTITLE4=Just out of reach
TTITLE5=Turn the cards slowly
TTITLE6=Walkin' after midnight
TTITLE7=A stranger in my arms
TTITLE8=Just a closer walk with me
TTITLE9=Stop look and listen
EXTD=
EXTT0=
EXTT1=
EXTT2=
EXTT3=
EXTT4=
EXTT5=
EXTT6=
EXTT7=
EXTT8=
EXTT9=
PLAYORDER=
